# xmcd
#
# Track frame offsets: 
#        150
#        22553
#        41154
#        57588
#        73842
#        93099
#        114478
#        128824
#        142317
#        160938
#        179023
#
# Disc length: 2552 seconds
#
# Revision: 0
# Processed by: cddbd v1.5.2PL0 Copyright (c) Steve Scherf et al.
# Submitted via: ExactAudioCopyFreeDBPlugin 1.0
#
DISCID=9d09f60b
DTITLE=William Clark Green - Rose Queen
DYEAR=2014
DGENRE=Country
TTITLE0=Rose Queen
TTITLE1=Remedy
TTITLE2=Dead or in Jail
TTITLE3=Its about time
TTITLE4=She likes the Beatles
TTITLE5=Drowning
TTITLE6=Hanging Around
TTITLE7=Lets Go
TTITLE8=Take Me Away
TTITLE9=What it takes to be Me
TTITLE10=Welcome to the Family
EXTD=
EXTT0=
EXTT1=
EXTT2=
EXTT3=
EXTT4=
EXTT5=
EXTT6=
EXTT7=
EXTT8=
EXTT9=
EXTT10=
PLAYORDER=
